<svg width="26" height="26" xmlns="http://www.w3.org/2000/svg" xmlns:xlink="http://www.w3.org/1999/xlink" version="1.1" x="0px" y="0px" viewBox="0 0 100 125" enable-background="new 0 0 100 100" xml:space="preserve"><path fill="#5BC73F" d="M83.486,26.19c-1.009-3.098-2.615-5.843-4.817-8.234c-2.204-2.389-5.061-4.314-8.57-5.771  C66.587,10.729,62.328,10,57.326,10H25.624v37.646H15.12v13.671h10.504v3.835H15.12v13.671h10.504V90h17.591V78.824h26.176V65.153  H43.215v-3.835h14.111c5.002,0,9.261-0.729,12.772-2.186c3.51-1.456,6.366-3.378,8.57-5.77c2.202-2.39,3.809-5.116,4.817-8.179  C84.495,42.121,85,38.946,85,35.659C85,32.448,84.495,29.292,83.486,26.19z M66.681,41.822c-0.859,1.567-2,2.783-3.417,3.64  c-1.419,0.86-3.063,1.439-4.931,1.737c-1.867,0.3-3.809,0.447-5.825,0.447h-9.293V23.671h9.293c2.017,0,3.958,0.15,5.825,0.448  c1.867,0.3,3.512,0.879,4.931,1.737c1.417,0.859,2.558,2.073,3.417,3.642c0.859,1.568,1.288,3.623,1.288,6.162  C67.969,38.199,67.54,40.252,66.681,41.822z"/></svg>